<svg xmlns="http://www.w3.org/2000/svg" viewBox="0 0 92 62.36"><defs><style>.a{fill:#d0edf8;}.b{fill:#12a4dd;}</style></defs><title>未标题-3</title><path class="a" d="M513.58,287.33a7.33,7.33,0,1,1,0-14.65h0v-7.24s-6.65-4.1-6.73-4.1H454.17c-.08,0-7.19,4.57-7.19,4.57v6.77h0a7.33,7.33,0,0,1,0,14.65h0v7.24s6.65,4.1,6.73,4.1h52.72c.08,0,7.19-4.56,7.19-4.56v-6.78Z" transform="translate(-434.3 -248.82)"/><path class="b" d="M506.43,301.22H453.71c-.77,0-.77,0-4.73-2.43l-3.34-2.05a2.55,2.55,0,0,1-1.21-2.18v-7.24a2.56,2.56,0,0,1,2.56-2.56h.07a4.77,4.77,0,0,0,0-9.54,2.55,2.55,0,0,1-2.63-2.56V265.9a2.55,2.55,0,0,1,1.18-2.15l3.57-2.29c4.2-2.68,4.2-2.68,5-2.68h52.72c.77,0,.77,0,4.73,2.43l3.34,2.05a2.56,2.56,0,0,1,1.22,2.18v7.24a2.56,2.56,0,0,1-2.56,2.56h-.07a4.77,4.77,0,0,0,0,9.54,2.55,2.55,0,0,1,2.63,2.56v6.77a2.55,2.55,0,0,1-1.18,2.15l-3.57,2.29C507.23,301.22,507.23,301.22,506.43,301.22Zm-52-5.11h51.32c1-.62,3.16-2,5.35-3.41v-3.15a9.88,9.88,0,0,1,0-19.12v-3.58l-4.86-3H454.89l-5.35,3.41v3.15a9.88,9.88,0,0,1,0,19.12v3.58Z" transform="translate(-434.3 -248.82)"/><path class="b" d="M523.75,311.18H436.86a2.56,2.56,0,0,1-2.56-2.56V251.38a2.56,2.56,0,0,1,2.56-2.56h86.89a2.56,2.56,0,1,1,0,5.11H439.41v52.13h81.78V272.59a2.56,2.56,0,0,1,5.11,0v36A2.56,2.56,0,0,1,523.75,311.18Z" transform="translate(-434.3 -248.82)"/><path class="b" d="M485.61,279.44a15.19,15.19,0,0,0-4.12-1.65V272a2.53,2.53,0,0,1,1.82,1.16,3.68,3.68,0,0,1,.5,1.59.51.51,0,0,0,.51.46h2.4a.51.51,0,0,0,.36-.15.51.51,0,0,0,.14-.37,5.72,5.72,0,0,0-1.69-4.12,6.74,6.74,0,0,0-4.06-1.71v-1.34A.51.51,0,0,0,481,267h-1.31a.51.51,0,0,0-.51.51v1.35a6,6,0,0,0-5.85,6,5.25,5.25,0,0,0,1.59,4,9,9,0,0,0,4.26,1.94v6.53a2.94,2.94,0,0,1-2.24-1.43,6.31,6.31,0,0,1-.54-2.54.51.51,0,0,0-.51-.48h-2.43a.51.51,0,0,0-.51.51,8.11,8.11,0,0,0,.84,4c1,1.77,2.8,2.81,5.39,3.07v2a.51.51,0,0,0,.51.51H481a.51.51,0,0,0,.51-.51v-2a8.92,8.92,0,0,0,3.58-1.15c1.75-1.14,2.64-3,2.62-5.65A4.87,4.87,0,0,0,485.61,279.44Zm-4.12,2a6.21,6.21,0,0,1,1.65.73,2.51,2.51,0,0,1,1.06,2.21,3.4,3.4,0,0,1-.41,1.69,2.83,2.83,0,0,1-2.3,1.41v-6Zm-4.68-6.73a3.1,3.1,0,0,1,.67-1.87,2.42,2.42,0,0,1,1.68-.85v5.28a4.43,4.43,0,0,1-1.61-.81A2.15,2.15,0,0,1,476.8,274.7Z" transform="translate(-434.3 -248.82)"/></svg>