<svg xmlns="http://www.w3.org/2000/svg" viewBox="0 0 45.21 41"><defs><style>.a{fill:#d0edf8;}.b{fill:#12a4dd;}</style></defs><title>未标题-6</title><path class="a" d="M474,287.53V269.08H451.34v18.44h11.53a7.26,7.26,0,0,0,7.06,4c-.07-.15-.15-.3-.21-.46a7.24,7.24,0,0,1-.54-3.52H474Z" transform="translate(-430.02 -251.77)"/><path class="b" d="M469.34,292.77a8.45,8.45,0,0,1-7.21-4h-10.8a1.25,1.25,0,0,1-1.25-1.25V269.08a1.25,1.25,0,0,1,1.25-1.25H474a1.25,1.25,0,0,1,1.25,1.25v18.44a1.25,1.25,0,0,1-1.25,1.25h-3.57a6.05,6.05,0,0,0,.45,1.78c0,.11.1.23.18.38a1.25,1.25,0,0,1-1,1.81Zm-16.76-6.49h10.28A1.26,1.26,0,0,1,464,287a6,6,0,0,0,4.13,3.18,8.5,8.5,0,0,1-.18-2.74,1.25,1.25,0,0,1,1.24-1.13h3.56V270.33H452.58v15.94Z" transform="translate(-430.02 -251.77)"/><path class="b" d="M434.85,284.53a9.71,9.71,0,0,1-4.11-.91,1.25,1.25,0,0,1-.32-2l.36-.35a7.21,7.21,0,0,0,1.51-7.54,1.15,1.15,0,0,1-.07-.27A15.79,15.79,0,0,1,461,260.47a1.25,1.25,0,1,1-2.23,1.12,13.29,13.29,0,0,0-24.12,11.15,1.24,1.24,0,0,1,.09.38,9.68,9.68,0,0,1-1.29,8.77,7.28,7.28,0,0,0,6.54-2,1.25,1.25,0,0,1,1.4-.25,13.26,13.26,0,0,0,4.3,1.13,1.25,1.25,0,0,1-.22,2.49,15.8,15.8,0,0,1-4.34-1A9.79,9.79,0,0,1,434.85,284.53Z" transform="translate(-430.02 -251.77)"/></svg>