<svg xmlns="http://www.w3.org/2000/svg" viewBox="0 0 53.08 41"><defs><style>.a{fill:#d0edf8;}.b{fill:#12a4dd;}</style></defs><title>未标题-5</title><rect class="a" x="1.39" y="6.92" width="41.3" height="5.08"/><circle class="a" cx="17.75" cy="22.71" r="3.76"/><path class="b" d="M437.39,272.1a1.39,1.39,0,0,0,0-2.79,5.16,5.16,0,1,0,3.65,8.8,5.17,5.17,0,1,0-1.44-2.78l0,.06a2.37,2.37,0,1,1-2.19-3.29Zm7.3,0a2.37,2.37,0,1,1-2.37,2.37A2.38,2.38,0,0,1,444.69,272.1Z" transform="translate(-426.94 -251.77)"/><path class="b" d="M469.63,257.29H429.72v-2.74h39.91a1.39,1.39,0,0,0,0-2.78h-41.3a1.39,1.39,0,0,0-1.39,1.39v29.55a1.39,1.39,0,0,0,1.39,1.39h26.82a1.39,1.39,0,0,0,0-2.78H429.72V265.16h39.91a1.39,1.39,0,0,0,1.39-1.39v-5.08A1.39,1.39,0,0,0,469.63,257.29Zm-1.39,5.08H429.72v-2.3h38.52v2.3Z" transform="translate(-426.94 -251.77)"/><path class="a" d="M476.14,272.43a5.71,5.71,0,0,1-5.16-3.27h-2.68a5.71,5.71,0,0,1-7.54,2.75v10.94c0,4.47,8.88,8.13,8.88,8.13s8.88-3.66,8.88-8.13V271.91A5.68,5.68,0,0,1,476.14,272.43Z" transform="translate(-426.94 -251.77)"/><path class="b" d="M469.63,292.77a1.5,1.5,0,0,1-.57-.11c-1-.41-9.81-4.2-9.81-9.52V272.2a1.51,1.51,0,0,1,2.14-1.37,4.15,4.15,0,0,0,1.75.38,4.22,4.22,0,0,0,3.8-2.41,1.51,1.51,0,0,1,1.36-.86H471a1.51,1.51,0,0,1,1.36.86,4.22,4.22,0,0,0,3.8,2.41,4.16,4.16,0,0,0,1.75-.38A1.51,1.51,0,0,1,480,272.2v10.94c0,5.33-8.81,9.11-9.81,9.52A1.5,1.5,0,0,1,469.63,292.77Zm-7.37-18.6v9c0,2.43,4.64,5.24,7.37,6.48,2.73-1.24,7.37-4.06,7.37-6.48v-9a7.18,7.18,0,0,1-.87.05,7.26,7.26,0,0,1-6-3.27h-.92a7.26,7.26,0,0,1-6,3.27A7,7,0,0,1,462.26,274.17Z" transform="translate(-426.94 -251.77)"/></svg>