<svg xmlns="http://www.w3.org/2000/svg" viewBox="0 0 41 46.04"><defs><style>.a{fill:#12a4dd;}.b{fill:#d0edf8;}</style></defs><title>未标题-9</title><path class="a" d="M453.92,269.88h-5.7a1.3,1.3,0,0,1-1.3-1.3v-5.76a1.3,1.3,0,1,1,2.6,0v4.46h4.4a1.3,1.3,0,1,1,0,2.6Z" transform="translate(-432.98 -249.25)"/><path class="b" d="M451.07,254.19h-5.83a1.83,1.83,0,0,1-1.82-1.82h0a1.83,1.83,0,0,1,1.82-1.82h5.83a1.82,1.82,0,0,1,1.82,1.82h0A1.82,1.82,0,0,1,451.07,254.19Z" transform="translate(-432.98 -249.25)"/><path class="a" d="M451.07,255.49h-5.83a3.12,3.12,0,1,1,0-6.24h5.83a3.12,3.12,0,0,1,0,6.24Zm-5.83-3.64a.52.52,0,1,0,0,1h5.83a.52.52,0,0,0,0-1Z" transform="translate(-432.98 -249.25)"/><circle class="b" cx="28.56" cy="33.6" r="11.14"/><path class="a" d="M461.53,295.29A12.44,12.44,0,1,1,474,282.85,12.46,12.46,0,0,1,461.53,295.29Zm0-22.29a9.85,9.85,0,1,0,9.85,9.85A9.86,9.86,0,0,0,461.53,273Z" transform="translate(-432.98 -249.25)"/><path class="a" d="M444.9,283.38a1.34,1.34,0,0,1-.3,0,15.18,15.18,0,1,1,18.54-17.28,1.3,1.3,0,1,1-2.56.43,12.59,12.59,0,1,0-15.37,14.32,1.3,1.3,0,0,1-.3,2.56Z" transform="translate(-432.98 -249.25)"/><path class="a" d="M461.09,287.73c-1.86-.06-3.39-1-3.39-2,0-.53.46-1.31,1.06-1.31s1.18.92,2.33,1.12V283c-1.43-.54-3.11-1.21-3.11-3.2s1.46-2.92,3.11-3.15v-.44c0-.22.25-.42.59-.42s.59.2.59.42v.39c1,0,2.78.28,2.78,1.35,0,.42-.28,1.27-1,1.27-.51,0-.81-.5-1.82-.57v2.27c1.41.53,3.06,1.26,3.06,3.35a3.3,3.3,0,0,1-3.06,3.39v.45c0,.22-.3.42-.59.42s-.59-.2-.59-.42v-.39Zm.15-7.18V278.7c-.7.14-1,.5-1,.87S460.65,280.3,461.24,280.55Zm.87,2.87v2.08c.53-.12.95-.42.95-1S462.67,283.69,462.11,283.42Z" transform="translate(-432.98 -249.25)"/><path class="a" d="M457.36,259.49a1.3,1.3,0,0,1-.92-2.22L458.7,255a1.3,1.3,0,1,1,1.84,1.84l-2.26,2.26A1.29,1.29,0,0,1,457.36,259.49Z" transform="translate(-432.98 -249.25)"/></svg>