<svg xmlns="http://www.w3.org/2000/svg" viewBox="0 0 62.94 41"><defs><style>.a{fill:#d0edf8;}.b{fill:#12a4dd;}</style></defs><title>未标题-4</title><circle class="a" cx="50.08" cy="33.44" r="5.84"/><path class="a" d="M429.75,254.5v29.87h6.85a5.84,5.84,0,0,1,11.56,0H455V254.5Z" transform="translate(-422 -251.77)"/><path class="b" d="M422,271.83a1.72,1.72,0,0,0,1.72,1.72H428v10.82a1.72,1.72,0,0,0,1.72,1.72h5.32a1.72,1.72,0,0,0,3.19-.88,4.29,4.29,0,0,1,0-.59h0c0-.12,0-.24.07-.35v0c0-.11.06-.22.09-.33v0c0-.11.08-.21.13-.32v0a4.16,4.16,0,0,1,3-2.38h0l.36-.05h0l.36,0,.36,0h0l.36.05h0a4.16,4.16,0,0,1,3,2.38v0c0,.1.09.21.13.32v0c0,.11.07.22.09.33v0c0,.12,0,.23.07.35h0a4.22,4.22,0,0,1,0,.59,4.13,4.13,0,0,1-4.12,4.12,1.72,1.72,0,1,0,0,3.44,7.57,7.57,0,0,0,7.5-6.68h14.68a7.56,7.56,0,0,0,15,0h.76a4.6,4.6,0,0,0,4.6-4.6v-5.76a4.59,4.59,0,0,0-1.59-3.48l-4-3.9-4-10.57,0-.09a10,10,0,0,0-9.12-5.94l-3.57,0a1.72,1.72,0,0,0-1.71,1.72v8.67a1.72,1.72,0,1,0,3.43,0v-7h1.85a6.59,6.59,0,0,1,6,3.86l3.12,8.23h-4.71a1.72,1.72,0,0,0,0,3.43h6.29l4.16,4,.09.08a1.16,1.16,0,0,1,.42.89v5.76a1.16,1.16,0,0,1-1.16,1.16H479.2a7.56,7.56,0,0,0-14.23,0h-.64V274a1.72,1.72,0,0,0-3.43,0v8.69h-4.19V254.51a1.72,1.72,0,0,0-1.72-1.72H429.75a1.72,1.72,0,0,0-1.72,1.72V258h-.88a1.72,1.72,0,1,0,0,3.43H428V264h-2.6a1.72,1.72,0,0,0,0,3.43H428v2.63h-4.32A1.71,1.71,0,0,0,422,271.83Zm46,13.38a4.12,4.12,0,1,1,4.12,4.12A4.13,4.13,0,0,1,468,285.21Zm-36.49-2.55h0v-9.11h.31a1.72,1.72,0,1,0,0-3.43h-.31v-2.63h2a1.72,1.72,0,0,0,0-3.43h-2v-2.63h3.75a1.72,1.72,0,0,0,0-3.43h-3.75v-1.76h21.8v26.44H449.5l-.1-.26v0l-.11-.26h0a7.56,7.56,0,0,0-5.91-4.4l-.13,0-.17,0-.2,0h-1l-.2,0-.17,0-.13,0a7.57,7.57,0,0,0-5.91,4.4h0l-.11.26v0l-.1.26Z" transform="translate(-422 -251.77)"/></svg>