<svg xmlns="http://www.w3.org/2000/svg" viewBox="0 0 64.36 25"><defs><style>.a{fill:#d0edf8;}.b{fill:#12a4dd;}</style></defs><title>未标题-7</title><path class="a" d="M482.29,277.21a1.88,1.88,0,0,1-2,1.76h0a1.88,1.88,0,0,1-2-1.76v-4a1.88,1.88,0,0,1,2-1.76h0a1.88,1.88,0,0,1,2,1.76Z" transform="translate(-420.36 -259.77)"/><path class="b" d="M425.1,277h7.21a2.63,2.63,0,0,1,1.64.44,1.44,1.44,0,0,1,.57,1.2,1.59,1.59,0,0,1-.45,1.15,1.79,1.79,0,0,1-1.36.47H422.55a2.2,2.2,0,0,1-1.61-.57,1.83,1.83,0,0,1-.58-1.35,3.41,3.41,0,0,1,.37-1.32,4.77,4.77,0,0,1,.82-1.29q1.84-1.91,3.31-3.26a21.76,21.76,0,0,1,2.11-1.79,12.18,12.18,0,0,0,1.88-1.61,6.38,6.38,0,0,0,1.15-1.66,3.94,3.94,0,0,0,.39-1.66,3,3,0,0,0-.42-1.58,2.91,2.91,0,0,0-1.15-1.08,3.32,3.32,0,0,0-1.58-.39,3.23,3.23,0,0,0-2.85,1.59,6.82,6.82,0,0,0-.46,1.13,4.77,4.77,0,0,1-.73,1.42,1.45,1.45,0,0,1-1.19.5,1.55,1.55,0,0,1-1.15-.46,1.67,1.67,0,0,1-.46-1.24,5.2,5.2,0,0,1,.43-2,5.71,5.71,0,0,1,1.28-1.88,6.29,6.29,0,0,1,2.15-1.36,8.23,8.23,0,0,1,3.06-.52,8.83,8.83,0,0,1,3.6.66,5.41,5.41,0,0,1,1.7,1.21,5.69,5.69,0,0,1,1.14,1.79,5.63,5.63,0,0,1,.41,2.1,5.88,5.88,0,0,1-.85,3.11,9.71,9.71,0,0,1-1.73,2.2q-.89.79-3,2.49a22.06,22.06,0,0,0-2.85,2.64A7.83,7.83,0,0,0,425.1,277Z" transform="translate(-420.36 -259.77)"/><path class="b" d="M440.09,280.67a2.37,2.37,0,0,1-1.57-.56,1.94,1.94,0,0,1-.66-1.57,1.91,1.91,0,0,1,.65-1.46,2.19,2.19,0,0,1,1.53-.6,2.13,2.13,0,0,1,1.2.36,2.35,2.35,0,0,1,.84,1.06,4.31,4.31,0,0,1,.3,1.72,5.82,5.82,0,0,1-.58,2.56,5.64,5.64,0,0,1-1.42,1.89,2.48,2.48,0,0,1-1.51.7.94.94,0,0,1-1-.94,1,1,0,0,1,.57-.91A2.61,2.61,0,0,0,440.09,280.67Z" transform="translate(-420.36 -259.77)"/><path class="b" d="M457.53,263.47H451l-.79,4.47a7.76,7.76,0,0,1,3.62-1,6.18,6.18,0,0,1,2.48.5,6.34,6.34,0,0,1,3.39,3.45,6.63,6.63,0,0,1,.5,2.58,7.53,7.53,0,0,1-.9,3.64,6.64,6.64,0,0,1-2.59,2.61,7.73,7.73,0,0,1-3.9,1,7.84,7.84,0,0,1-4-.91,5.7,5.7,0,0,1-2.18-2.09,4.49,4.49,0,0,1-.64-2.06,1.59,1.59,0,0,1,1.57-1.5,1.85,1.85,0,0,1,1.73,1.34,4.66,4.66,0,0,0,1.49,1.91,3.47,3.47,0,0,0,2.1.68,3.2,3.2,0,0,0,1.86-.55,3.6,3.6,0,0,0,1.24-1.52,5.27,5.27,0,0,0,.43-2.19,5,5,0,0,0-.47-2.26,3.25,3.25,0,0,0-1.25-1.4,3.4,3.4,0,0,0-1.75-.46,3.69,3.69,0,0,0-1.7.29,15.38,15.38,0,0,0-1.47,1,2.91,2.91,0,0,1-1.58.73,1.71,1.71,0,0,1-1.2-.49,1.49,1.49,0,0,1-.52-1.11s.05-.36.15-.94l1.16-6.61a3.2,3.2,0,0,1,.72-1.73,2.32,2.32,0,0,1,1.71-.54h7.29q2.15,0,2.15,1.65a1.44,1.44,0,0,1-.52,1.16A2.39,2.39,0,0,1,457.53,263.47Z" transform="translate(-420.36 -259.77)"/><path class="b" d="M470.57,265.25a5.7,5.7,0,0,1-1.16,3.92,4.06,4.06,0,0,1-3.18,1.28,4.55,4.55,0,0,1-2.23-.54,3.69,3.69,0,0,1-1.54-1.7,6.6,6.6,0,0,1-.55-2.83,9,9,0,0,1,.43-3,3.49,3.49,0,0,1,1.39-1.82,4.43,4.43,0,0,1,2.45-.62,5,5,0,0,1,1.89.33,3.47,3.47,0,0,1,1.38,1,4.46,4.46,0,0,1,.84,1.66A8.64,8.64,0,0,1,470.57,265.25Zm-2.58-.14a6.63,6.63,0,0,0-.39-2.63,1.39,1.39,0,0,0-1.37-.82,1.41,1.41,0,0,0-1.05.39,2.16,2.16,0,0,0-.54,1.16,10.71,10.71,0,0,0-.15,2,11.1,11.1,0,0,0,.15,2,2.19,2.19,0,0,0,.54,1.17,1.4,1.4,0,0,0,1.06.39,1.37,1.37,0,0,0,1.39-.87A7.65,7.65,0,0,0,468,265.11Zm11.79-3.36-11.5,18.54c-.29.51-.62.76-1,.76a1.05,1.05,0,0,1-.64-.24.75.75,0,0,1-.32-.63,1.37,1.37,0,0,1,.27-.7l11.57-18.69a5.52,5.52,0,0,1,.53-.77.84.84,0,0,1,.66-.25.94.94,0,0,1,.67.24.84.84,0,0,1,.26.64A2.79,2.79,0,0,1,479.78,261.75Zm4.93,13.48a5.71,5.71,0,0,1-1.16,3.92,4.06,4.06,0,0,1-3.17,1.28,4.52,4.52,0,0,1-2.24-.55,3.76,3.76,0,0,1-1.55-1.7,6.39,6.39,0,0,1-.56-2.83,6.67,6.67,0,0,1,1-4.05,3.83,3.83,0,0,1,3.27-1.36,4.92,4.92,0,0,1,1.89.33,3.63,3.63,0,0,1,1.38,1,4.21,4.21,0,0,1,.85,1.65A8.63,8.63,0,0,1,484.71,275.23Zm-2.58-.14a6.48,6.48,0,0,0-.39-2.6,1.39,1.39,0,0,0-1.36-.82,1.46,1.46,0,0,0-1.08.39,2.22,2.22,0,0,0-.54,1.14,9.53,9.53,0,0,0-.16,2,6.87,6.87,0,0,0,.39,2.71,1.4,1.4,0,0,0,1.39.85,1.37,1.37,0,0,0,1.38-.88A7.51,7.51,0,0,0,482.13,275.09Z" transform="translate(-420.36 -259.77)"/></svg>