<svg xmlns="http://www.w3.org/2000/svg" viewBox="0 0 95.71 92"><defs><style>.a{fill:#ceeaf5;}.b{fill:#229acd;}</style></defs><title>未标题-2</title><path class="a" d="M271,377.9c-5.16,4.88-17.67,16.7-18,16.7l10.5,14.87,7.47-1.66V377.9Z" transform="translate(-250.35 -375.15)"/><path class="a" d="M325.38,407.82l7.47,1.66,10.5-14.87c-.31,0-12.82-11.81-18-16.7v29.91Z" transform="translate(-250.35 -375.15)"/><path class="a" d="M311.85,383.12a13.65,13.65,0,1,1-26.24-5.26H310.8A13.64,13.64,0,0,1,311.85,383.12Z" transform="translate(-250.35 -375.15)"/><path class="b" d="M324.53,410.4l7.74,1.72a2.71,2.71,0,0,0,2.8-1.08l10.5-14.87a2.71,2.71,0,0,0-.78-3.86c-1.13-.92-7.83-7.17-17.28-16.11a2.7,2.7,0,0,0-2.13-1H271a2.7,2.7,0,0,0-2.13,1c-9.45,9-16.16,15.2-17.28,16.12a2.71,2.71,0,0,0-.78,3.85L261.35,411a2.7,2.7,0,0,0,2.21,1.15,2.66,2.66,0,0,0,.59-.06l4.18-.93v41.1a2.37,2.37,0,0,0,2.37,2.37h38v0l.11.37.22.6c.06.18.13.36.2.54s.24.55.36.83l.26.55c.12.24.25.49.38.72a17.34,17.34,0,0,0,1.7,2.49l.1.11c.29.35.59.68.91,1l.34.34c.26.25.52.49.8.72l.36.31c.24.19.5.38.75.56s.49.35.74.51.62.39.95.57l.64.33.76.37.55.24c.4.16.8.31,1.21.44l.59.17.89.23.57.13c.47.09.94.16,1.42.22l.56,0c.44,0,.87.06,1.32.06a17.42,17.42,0,0,0,17.4-17.63,2.29,2.29,0,0,0-1.14-2,2.62,2.62,0,0,0-4,2.18,12.22,12.22,0,0,1-20.4,9.09l-.07-.07-.41-.39-.33-.35-.06-.06a12.21,12.21,0,0,1-2.43-4l-.18-.52-.14-.46,0-.09c0-.17-.09-.35-.13-.56s-.07-.36-.1-.51v-.08c0-.17-.05-.34-.07-.51a12.22,12.22,0,0,1,20.63-10.27,2.57,2.57,0,0,0,2.27.53,2.66,2.66,0,0,0,2-2.63,2.58,2.58,0,0,0-.82-1.8,17.47,17.47,0,0,0-7.85-4.23l-.28-.07c-.32-.07-.64-.12-1-.17l-.1,0v-6.38a2.37,2.37,0,0,0-2.37-2.37H284.39a2.39,2.39,0,0,0-2.06,1.09,2.75,2.75,0,0,0,2.23,4.32h38.11v3.34l-.58.09-.45.09c-.4.09-.8.19-1.2.31l-.36.11q-.69.22-1.35.49l-.15.06q-.76.32-1.48.71l-.14.09c-.4.22-.79.46-1.17.71l-.49.35A17.46,17.46,0,0,0,313,437.5h0a17.23,17.23,0,0,0-4.12,6.63l0,.09c-.15.45-.28.9-.39,1.36l-.05.21c-.1.44-.18.88-.25,1.33l0,.3c-.06.42-.1.85-.12,1.28,0,.18,0,.37,0,.55H273.74V380.56h8.31a15.94,15.94,0,0,0,1.7,10.08,16.31,16.31,0,0,0,30.81-7.52,16.45,16.45,0,0,0-.2-2.56h8.31v27.52A2.37,2.37,0,0,0,324.53,410.4Zm3.56-26.22,6.25,5.88c2.11,2,3.79,3.53,5,4.62l.41.37-8,11.4-3.6-.8V384.18Zm-59.76,21.46-3.6.8-8-11.4.41-.37c1.19-1.09,2.87-2.64,5-4.62l6.25-5.88Zm26-12.27a10.56,10.56,0,0,1-6.72-7.64,11.33,11.33,0,0,1,0-5.17h21.28a11,11,0,0,1-14.56,12.81Z" transform="translate(-250.35 -375.15)"/><path class="b" d="M329,449.29a10.24,10.24,0,0,0-2.79-1.11v-3.91a1.72,1.72,0,0,1,1.23.79,2.5,2.5,0,0,1,.34,1.08.35.35,0,0,0,.34.31h1.62a.34.34,0,0,0,.34-.35,3.86,3.86,0,0,0-1.14-2.78,4.56,4.56,0,0,0-2.74-1.16v-.91a.34.34,0,0,0-.34-.34h-.89a.34.34,0,0,0-.34.34v.91a4.08,4.08,0,0,0-4,4,3.55,3.55,0,0,0,1.08,2.74,6.1,6.1,0,0,0,2.88,1.31v4.42a2,2,0,0,1-1.52-1,4.23,4.23,0,0,1-.37-1.72.34.34,0,0,0-.34-.32h-1.64a.34.34,0,0,0-.34.34,5.5,5.5,0,0,0,.57,2.71,4.36,4.36,0,0,0,3.65,2.07v1.32a.34.34,0,0,0,.34.34h.89a.34.34,0,0,0,.34-.34v-1.33a6.07,6.07,0,0,0,2.42-.78,4.19,4.19,0,0,0,1.77-3.82A3.29,3.29,0,0,0,329,449.29Zm-2.79,1.35a4.14,4.14,0,0,1,1.11.49,1.69,1.69,0,0,1,.72,1.49,2.29,2.29,0,0,1-.28,1.14,1.92,1.92,0,0,1-1.55,1ZM323,446.08a2.09,2.09,0,0,1,.46-1.26,1.64,1.64,0,0,1,1.14-.58v3.57a3,3,0,0,1-1.09-.55A1.45,1.45,0,0,1,323,446.08Z" transform="translate(-250.35 -375.15)"/></svg>